<svg xmlns="http://www.w3.org/2000/svg" xmlns:xlink="http://www.w3.org/1999/xlink"><defs><style>
    .sprite-symbol-usage {display: none;}
    .sprite-symbol-usage:target {display: inline;}
  </style><symbol viewBox="0 0 23 23" fill="none" id="arrow">
<path d="M16.1958 16.9766C16.0493 16.8301 15.9669 16.6314 15.9669 16.4242C15.9669 16.217 16.0493 16.0182 16.1958 15.8717L19.7865 12.2809L1.39072 12.2809C1.28759 12.2814 1.18539 12.2614 1.09003 12.2221C0.994663 12.1828 0.908019 12.1251 0.835092 12.0521C0.762165 11.9792 0.704399 11.8926 0.665127 11.7972C0.625854 11.7018 0.605852 11.5996 0.606275 11.4965C0.606889 11.2901 0.689151 11.0923 0.835095 10.9464C0.981038 10.8005 1.1788 10.7182 1.3852 10.7176L19.7589 10.7176L16.1902 7.1489C16.0437 7.00239 15.9614 6.80367 15.9614 6.59647C15.9614 6.38927 16.0437 6.19056 16.1902 6.04405C16.3368 5.89753 16.5355 5.81522 16.7427 5.81522C16.9499 5.81522 17.1486 5.89753 17.2951 6.04405L22.2669 11.0159C22.3988 11.1478 22.4729 11.3266 22.4729 11.5131C22.4729 11.6996 22.3988 11.8784 22.2669 12.0103L17.2951 16.9821C17.1481 17.1262 16.9502 17.2065 16.7443 17.2054C16.5384 17.2044 16.3413 17.1221 16.1958 16.9766Z" fill="currentColor" />
</symbol><symbol viewBox="0 0 24 24" fill="none" id="cart">
<path d="M17 18C15.9 18 15.01 18.9 15.01 20C15.01 21.1 15.9 22 17 22C18.1 22 19 21.1 19 20C19 18.9 18.1 18 17 18ZM7 18C5.9 18 5.01 18.9 5.01 20C5.01 21.1 5.9 22 7 22C8.1 22 9 21.1 9 20C9 18.9 8.1 18 7 18ZM7 15L8.1 13H15.55C16.3 13 16.96 12.59 17.3 11.97L21.7 4H5.21L4.27 2H1V4H3L6.6 11.59L3.62 17H19V15H7Z" fill="currentColor" />
</symbol><symbol viewBox="0 0 24 24" fill="none" id="chevron">
    <path d="M16.59 8.58984L12 13.1698L7.41 8.58984L6 9.99984L12 15.9998L18 9.99984L16.59 8.58984Z" fill="currentColor" />
</symbol><symbol viewBox="0 0 24 24" fill="none" id="close">
<path d="M18.5 6L18 5.5L12 11.5L6 5.5L5.5 6L11.5 12L5.5 18L6 18.5L12 12.5L18 18.5L18.5 18L12.5 12L18.5 6Z" fill="currentColor" />
</symbol><symbol fill="none" viewBox="0 0 12 12" id="email">
<path fill="currentColor" d="M12 2C12 1.44772 11.5523 1 11 1H1C0.447715 1 0 1.44772 0 2V10C0 10.5523 0.447715 11 1 11H11C11.5523 11 12 10.5523 12 10V2ZM10.8 3.216C10.8 3.39315 10.7105 3.5583 10.562 3.65495L6.5456 6.26979C6.21392 6.48573 5.78608 6.48573 5.4544 6.26979L1.438 3.65495C1.28954 3.5583 1.2 3.39315 1.2 3.216V3.216C1.2 2.80024 1.66113 2.55021 2.00955 2.77705L5.4544 5.01979C5.78608 5.23573 6.21392 5.23573 6.5456 5.01979L9.99045 2.77705C10.3389 2.55021 10.8 2.80024 10.8 3.216V3.216Z" />
</symbol><symbol viewBox="0 0 12 12" fill="none" id="facebook">
    <path fill="currentColor" d="M9.2435 0.0024968L7.68737 0C5.93911 0 4.80931 1.15914 4.80931 2.95322V4.31485H3.24469C3.10948 4.31485 3 4.42446 3 4.55966V6.53251C3 6.66771 3.10961 6.77719 3.24469 6.77719H4.80931V11.7553C4.80931 11.8905 4.91879 12 5.05399 12H7.09538C7.23058 12 7.34007 11.8904 7.34007 11.7553V6.77719H9.16947C9.30467 6.77719 9.41416 6.66771 9.41416 6.53251L9.41491 4.55966C9.41491 4.49474 9.38907 4.43257 9.34325 4.38663C9.29743 4.34069 9.23501 4.31485 9.1701 4.31485H7.34007V3.16058C7.34007 2.60579 7.47227 2.32415 8.19497 2.32415L9.24325 2.32377C9.37833 2.32377 9.48781 2.21416 9.48781 2.07909V0.247183C9.48781 0.112231 9.37845 0.00274648 9.2435 0.0024968Z" />
</symbol><symbol viewBox="0 0 16 16" fill="none" id="instagram">
<path fill="currentColor" d="M8.0001 10.3996C9.32558 10.3996 10.4001 9.32509 10.4001 7.99961C10.4001 6.67413 9.32558 5.59961 8.0001 5.59961C6.67461 5.59961 5.6001 6.67413 5.6001 7.99961C5.6001 9.32509 6.67461 10.3996 8.0001 10.3996Z" />
<path fill="currentColor" d="M13 0H3C2.20435 0 1.44129 0.31607 0.878679 0.878679C0.31607 1.44129 0 2.20435 0 3V13C0 13.7956 0.31607 14.5587 0.878679 15.1213C1.44129 15.6839 2.20435 16 3 16H13C13.7956 16 14.5587 15.6839 15.1213 15.1213C15.6839 14.5587 16 13.7956 16 13V3C16 2.20435 15.6839 1.44129 15.1213 0.878679C14.5587 0.31607 13.7956 0 13 0ZM8 12.5C7.10998 12.5 6.23996 12.2361 5.49993 11.7416C4.75991 11.2471 4.18314 10.5443 3.84254 9.72207C3.50195 8.89981 3.41283 7.99501 3.58647 7.12209C3.7601 6.24918 4.18868 5.44736 4.81802 4.81802C5.44736 4.18868 6.24918 3.7601 7.12209 3.58647C7.99501 3.41283 8.89981 3.50195 9.72207 3.84254C10.5443 4.18314 11.2471 4.75991 11.7416 5.49993C12.2361 6.23996 12.5 7.10998 12.5 8C12.5 9.19347 12.0259 10.3381 11.182 11.182C10.3381 12.0259 9.19347 12.5 8 12.5V12.5ZM12.5 4.5C12.3022 4.5 12.1089 4.44135 11.9444 4.33147C11.78 4.22159 11.6518 4.06541 11.5761 3.88268C11.5004 3.69996 11.4806 3.49889 11.5192 3.30491C11.5578 3.11093 11.653 2.93275 11.7929 2.79289C11.9327 2.65304 12.1109 2.5578 12.3049 2.51921C12.4989 2.48063 12.7 2.50043 12.8827 2.57612C13.0654 2.65181 13.2216 2.77998 13.3315 2.94443C13.4414 3.10888 13.5 3.30222 13.5 3.5C13.5 3.76522 13.3946 4.01957 13.2071 4.20711C13.0196 4.39464 12.7652 4.5 12.5 4.5Z" />
</symbol><symbol viewBox="0 0 12 12" fill="none" id="linkedin">
    <path fill="currentColor" d="M1.50024 0C2.3144 0 3 0.685594 3 1.49975C3 2.35674 2.27154 3.02093 1.50024 2.9995C0.707517 3.02093 0.000489141 2.35674 0.000489141 1.49975C-0.0209418 0.664163 0.664679 0 1.50024 0Z" />
    <path fill="currentColor" d="M2.50003 12H0.5C0.225007 12 0 11.8154 0 11.5897V4.41025C0 4.18462 0.2 4 0.474993 4H2.5C2.77499 4 3 4.18462 3 4.41025V11.6103C3.00003 11.8154 2.77502 12 2.50003 12Z" />
    <path fill="currentColor" d="M11.979 6.63999C11.979 5.16 10.8242 4 9.27036 4H8.82942C7.98953 4 7.17063 4.37999 6.72968 5C6.58271 5.13999 6.5197 5.20001 6.5197 5.20001V4.40002C6.5197 4.32002 6.39371 4.20001 6.30972 4.20001H4.20998C4.12599 4.20001 4 4.28001 4 4.38001V11.84C4 11.92 4.12599 12 4.20998 12H6.51968C6.60367 12 6.72966 11.92 6.72966 11.84V7.51998C6.72966 6.77999 7.31758 6.15998 8.09448 6.13999C8.49342 6.13999 8.85037 6.27999 9.12334 6.53999C9.37531 6.77999 9.4803 7.11999 9.4803 7.49998V11.8C9.4803 11.88 9.60629 12 9.69028 12H11.79C11.874 12 12 11.88 12 11.8V6.63999H11.979Z" />
</symbol><symbol viewBox="0 0 24 24" fill="none" id="menu">
<path d="M3 16.5H21V15.5H3V16.5ZM3 12.5H21V11.5H3V12.5ZM3 7.5V8.5H21V7.5H3Z" fill="currentColor" />
</symbol><symbol viewBox="0 0 24 24" fill="none" id="person">
    <path d="M12 12C14.21 12 16 10.21 16 8C16 5.79 14.21 4 12 4C9.79 4 8 5.79 8 8C8 10.21 9.79 12 12 12ZM12 14C9.33 14 4 15.34 4 18V20H20V18C20 15.34 14.67 14 12 14Z" fill="currentColor" />
</symbol><symbol viewBox="0 0 18 18" fill="none" id="phone">
<path d="M17.01 12.38C15.78 12.38 14.59 12.18 13.48 11.82C13.13 11.7 12.74 11.79 12.47 12.06L10.9 14.03C8.07 12.68 5.42 10.13 4.01 7.2L5.96 5.54C6.23 5.26 6.31 4.87 6.2 4.52C5.83 3.41 5.64 2.22 5.64 0.99C5.64 0.45 5.19 0 4.65 0H1.19C0.65 0 0 0.24 0 0.99C0 10.28 7.73 18 17.01 18C17.72 18 18 17.37 18 16.82V13.37C18 12.83 17.55 12.38 17.01 12.38Z" fill="currentColor" />
</symbol><symbol viewBox="0 0 20 20" fill="none" id="pin">
<path d="M10 0C6.13 0 3 3.13 3 7C3 12.25 10 20 10 20C10 20 17 12.25 17 7C17 3.13 13.87 0 10 0ZM10 9.5C8.62 9.5 7.5 8.38 7.5 7C7.5 5.62 8.62 4.5 10 4.5C11.38 4.5 12.5 5.62 12.5 7C12.5 8.38 11.38 9.5 10 9.5Z" fill="currentColor" />
</symbol><symbol viewBox="0 0 24 24" fill="none" id="search">
<path d="M10.27 17.5392C11.883 17.5389 13.4495 16.9989 14.7202 16.0053L18.715 20L20 18.7151L16.0051 14.7204C16.9993 13.4498 17.5396 11.883 17.54 10.2696C17.54 6.26133 14.2785 3 10.27 3C6.26151 3 3 6.26133 3 10.2696C3 14.2779 6.26151 17.5392 10.27 17.5392ZM10.27 4.8174C13.2771 4.8174 15.7225 7.26272 15.7225 10.2696C15.7225 13.2765 13.2771 15.7218 10.27 15.7218C7.26295 15.7218 4.8175 13.2765 4.8175 10.2696C4.8175 7.26272 7.26295 4.8174 10.27 4.8174Z" fill="currentColor" />
</symbol><symbol viewBox="0 0 12 12" fill="none" id="twitter">
    <path fill="currentColor" d="M12 2.18385C11.5537 2.38462 11.0782 2.51769 10.5825 2.58231C11.0925 2.27 11.4818 1.77923 11.6648 1.18769C11.1893 1.47846 10.6642 1.68385 10.1047 1.79846C9.65325 1.30538 9.00975 1 8.30775 1C6.94575 1 5.84925 2.13385 5.84925 3.52385C5.84925 3.72385 5.86575 3.91615 5.90625 4.09923C3.861 3.99692 2.05125 2.99154 0.8355 1.46C0.62325 1.83769 0.49875 2.27 0.49875 2.73538C0.49875 3.60923 0.9375 4.38385 1.5915 4.83231C1.19625 4.82462 0.8085 4.70692 0.48 4.52154C0.48 4.52923 0.48 4.53923 0.48 4.54923C0.48 5.77538 1.33275 6.79385 2.451 7.02846C2.25075 7.08462 2.0325 7.11154 1.806 7.11154C1.6485 7.11154 1.4895 7.10231 1.34025 7.06846C1.659 8.06769 2.5635 8.80231 3.639 8.82615C2.802 9.49769 1.73925 9.90231 0.58875 9.90231C0.387 9.90231 0.1935 9.89308 0 9.86769C1.08975 10.5885 2.38125 11 3.774 11C8.301 11 10.776 7.15385 10.776 3.82C10.776 3.70846 10.7722 3.60077 10.767 3.49385C11.2552 3.13846 11.6655 2.69462 12 2.18385Z" />
</symbol><symbol viewBox="0 0 12 12" fill="none" id="youtube">
    <path fill="currentColor" d="M12 6.33299C12 6.29998 12 6.26246 11.9987 6.21895C11.9973 6.09741 11.9946 5.96087 11.992 5.81533C11.9813 5.3967 11.9625 4.97957 11.933 4.58645C11.8929 4.04478 11.8339 3.59314 11.7536 3.25404C11.6688 2.90015 11.5026 2.5774 11.2715 2.31805C11.0405 2.05869 10.7528 1.87181 10.4371 1.77608C10.058 1.66205 9.31607 1.59153 8.27143 1.54801C7.77455 1.52701 7.24286 1.5135 6.71116 1.506C6.525 1.503 6.35223 1.5015 6.19688 1.5H5.80312C5.64777 1.5015 5.475 1.503 5.28884 1.506C4.75714 1.5135 4.22545 1.52701 3.72857 1.54801C2.68393 1.59303 1.94062 1.66355 1.56295 1.77608C1.24714 1.87157 0.959289 2.05837 0.728229 2.31777C0.497168 2.57716 0.331018 2.90004 0.246429 3.25404C0.164732 3.59314 0.107143 4.04478 0.0669643 4.58645C0.0375 4.97957 0.01875 5.3967 0.00803569 5.81533C0.00401784 5.96087 0.00267855 6.09741 0.00133927 6.21895C0.00133927 6.26246 0 6.29998 0 6.33299V6.41701C0 6.45002 -2.04558e-08 6.48753 0.00133927 6.53105C0.00267855 6.65259 0.00535712 6.78913 0.00803569 6.93467C0.01875 7.3533 0.0375 7.77043 0.0669643 8.16355C0.107143 8.70522 0.166071 9.15686 0.246429 9.49596C0.417857 10.2147 0.921429 10.7819 1.56295 10.9739C1.94062 11.0879 2.68393 11.1585 3.72857 11.202C4.22545 11.223 4.75714 11.2365 5.28884 11.244C5.475 11.247 5.64777 11.2485 5.80312 11.25H6.19688C6.35223 11.2485 6.525 11.247 6.71116 11.244C7.24286 11.2365 7.77455 11.223 8.27143 11.202C9.31607 11.157 10.0594 11.0864 10.4371 10.9739C11.0786 10.7819 11.5821 10.2162 11.7536 9.49596C11.8353 9.15686 11.8929 8.70522 11.933 8.16355C11.9625 7.77043 11.9813 7.3533 11.992 6.93467C11.996 6.78913 11.9973 6.65259 11.9987 6.53105C11.9987 6.48753 12 6.45002 12 6.41701V6.33299V6.33299ZM11.0357 6.41101C11.0357 6.44252 11.0357 6.47703 11.0344 6.51754C11.033 6.63458 11.0304 6.76362 11.0277 6.90316C11.0183 7.30228 10.9996 7.70141 10.9714 8.07202C10.9353 8.55517 10.8844 8.95129 10.8214 9.21687C10.7384 9.56348 10.4946 9.83807 10.1866 9.92959C9.90536 10.0136 9.19687 10.0811 8.23393 10.1217C7.74643 10.1427 7.22143 10.1562 6.69777 10.1637C6.51429 10.1667 6.3442 10.1682 6.19152 10.1682H5.80848L5.30223 10.1637C4.77857 10.1562 4.25491 10.1427 3.76607 10.1217C2.80313 10.0796 2.0933 10.0136 1.81339 9.92959C1.50536 9.83656 1.26161 9.56348 1.17857 9.21687C1.11563 8.95129 1.06473 8.55517 1.02857 8.07202C1.00045 7.70141 0.983036 7.30228 0.972322 6.90316C0.968304 6.76362 0.966964 6.63308 0.965625 6.51754C0.965625 6.47703 0.964286 6.44102 0.964286 6.41101V6.33899C0.964286 6.30748 0.964286 6.27297 0.965625 6.23246C0.966964 6.11542 0.969643 5.98638 0.972322 5.84684C0.981697 5.44771 1.00045 5.04859 1.02857 4.67798C1.06473 4.19483 1.11563 3.79871 1.17857 3.53313C1.26161 3.18652 1.50536 2.91193 1.81339 2.82041C2.09464 2.73638 2.80313 2.66886 3.76607 2.62835C4.25357 2.60734 4.77857 2.59384 5.30223 2.58633C5.48571 2.58333 5.6558 2.58183 5.80848 2.58183H6.19152L6.69777 2.58633C7.22143 2.59384 7.74509 2.60734 8.23393 2.62835C9.19687 2.67036 9.9067 2.73638 10.1866 2.82041C10.4946 2.91343 10.7384 3.18652 10.8214 3.53313C10.8844 3.79871 10.9353 4.19483 10.9714 4.67798C10.9996 5.04859 11.017 5.44771 11.0277 5.84684C11.0317 5.98638 11.033 6.11692 11.0344 6.23246C11.0344 6.27297 11.0357 6.30898 11.0357 6.33899V6.41101ZM4.80804 8.38562L7.91518 6.35999L4.80804 4.36438V8.38562Z" />
</symbol></defs><use id="arrow-usage" xlink:href="#arrow" class="sprite-symbol-usage" /><use id="cart-usage" xlink:href="#cart" class="sprite-symbol-usage" /><use id="chevron-usage" xlink:href="#chevron" class="sprite-symbol-usage" /><use id="close-usage" xlink:href="#close" class="sprite-symbol-usage" /><use id="email-usage" xlink:href="#email" class="sprite-symbol-usage" /><use id="facebook-usage" xlink:href="#facebook" class="sprite-symbol-usage" /><use id="instagram-usage" xlink:href="#instagram" class="sprite-symbol-usage" /><use id="linkedin-usage" xlink:href="#linkedin" class="sprite-symbol-usage" /><use id="menu-usage" xlink:href="#menu" class="sprite-symbol-usage" /><use id="person-usage" xlink:href="#person" class="sprite-symbol-usage" /><use id="phone-usage" xlink:href="#phone" class="sprite-symbol-usage" /><use id="pin-usage" xlink:href="#pin" class="sprite-symbol-usage" /><use id="search-usage" xlink:href="#search" class="sprite-symbol-usage" /><use id="twitter-usage" xlink:href="#twitter" class="sprite-symbol-usage" /><use id="youtube-usage" xlink:href="#youtube" class="sprite-symbol-usage" /></svg>