<svg width="12" height="12" fill="none" viewBox="0 0 12 12" xmlns="http://www.w3.org/2000/svg">
<path fill="currentColor" d="M12 2C12 1.44772 11.5523 1 11 1H1C0.447715 1 0 1.44772 0 2V10C0 10.5523 0.447715 11 1 11H11C11.5523 11 12 10.5523 12 10V2ZM10.8 3.216C10.8 3.39315 10.7105 3.5583 10.562 3.65495L6.5456 6.26979C6.21392 6.48573 5.78608 6.48573 5.4544 6.26979L1.438 3.65495C1.28954 3.5583 1.2 3.39315 1.2 3.216V3.216C1.2 2.80024 1.66113 2.55021 2.00955 2.77705L5.4544 5.01979C5.78608 5.23573 6.21392 5.23573 6.5456 5.01979L9.99045 2.77705C10.3389 2.55021 10.8 2.80024 10.8 3.216V3.216Z"/>
</svg>
