<svg width="12" height="12" viewBox="0 0 12 12" fill="none" xmlns="http://www.w3.org/2000/svg">
    <path fill="currentColor" d="M9.2435 0.0024968L7.68737 0C5.93911 0 4.80931 1.15914 4.80931 2.95322V4.31485H3.24469C3.10948 4.31485 3 4.42446 3 4.55966V6.53251C3 6.66771 3.10961 6.77719 3.24469 6.77719H4.80931V11.7553C4.80931 11.8905 4.91879 12 5.05399 12H7.09538C7.23058 12 7.34007 11.8904 7.34007 11.7553V6.77719H9.16947C9.30467 6.77719 9.41416 6.66771 9.41416 6.53251L9.41491 4.55966C9.41491 4.49474 9.38907 4.43257 9.34325 4.38663C9.29743 4.34069 9.23501 4.31485 9.1701 4.31485H7.34007V3.16058C7.34007 2.60579 7.47227 2.32415 8.19497 2.32415L9.24325 2.32377C9.37833 2.32377 9.48781 2.21416 9.48781 2.07909V0.247183C9.48781 0.112231 9.37845 0.00274648 9.2435 0.0024968Z"  />
</svg>