<svg width="16" height="16" viewBox="0 0 16 16" fill="none" xmlns="http://www.w3.org/2000/svg">
<path fill="currentColor" d="M8.0001 10.3996C9.32558 10.3996 10.4001 9.32509 10.4001 7.99961C10.4001 6.67413 9.32558 5.59961 8.0001 5.59961C6.67461 5.59961 5.6001 6.67413 5.6001 7.99961C5.6001 9.32509 6.67461 10.3996 8.0001 10.3996Z"/>
<path fill="currentColor" d="M13 0H3C2.20435 0 1.44129 0.31607 0.878679 0.878679C0.31607 1.44129 0 2.20435 0 3V13C0 13.7956 0.31607 14.5587 0.878679 15.1213C1.44129 15.6839 2.20435 16 3 16H13C13.7956 16 14.5587 15.6839 15.1213 15.1213C15.6839 14.5587 16 13.7956 16 13V3C16 2.20435 15.6839 1.44129 15.1213 0.878679C14.5587 0.31607 13.7956 0 13 0ZM8 12.5C7.10998 12.5 6.23996 12.2361 5.49993 11.7416C4.75991 11.2471 4.18314 10.5443 3.84254 9.72207C3.50195 8.89981 3.41283 7.99501 3.58647 7.12209C3.7601 6.24918 4.18868 5.44736 4.81802 4.81802C5.44736 4.18868 6.24918 3.7601 7.12209 3.58647C7.99501 3.41283 8.89981 3.50195 9.72207 3.84254C10.5443 4.18314 11.2471 4.75991 11.7416 5.49993C12.2361 6.23996 12.5 7.10998 12.5 8C12.5 9.19347 12.0259 10.3381 11.182 11.182C10.3381 12.0259 9.19347 12.5 8 12.5V12.5ZM12.5 4.5C12.3022 4.5 12.1089 4.44135 11.9444 4.33147C11.78 4.22159 11.6518 4.06541 11.5761 3.88268C11.5004 3.69996 11.4806 3.49889 11.5192 3.30491C11.5578 3.11093 11.653 2.93275 11.7929 2.79289C11.9327 2.65304 12.1109 2.5578 12.3049 2.51921C12.4989 2.48063 12.7 2.50043 12.8827 2.57612C13.0654 2.65181 13.2216 2.77998 13.3315 2.94443C13.4414 3.10888 13.5 3.30222 13.5 3.5C13.5 3.76522 13.3946 4.01957 13.2071 4.20711C13.0196 4.39464 12.7652 4.5 12.5 4.5Z"/>
</svg>
