<svg width="12" height="12" viewBox="0 0 12 12" fill="none" xmlns="http://www.w3.org/2000/svg">
    <path fill="currentColor" d="M1.50024 0C2.3144 0 3 0.685594 3 1.49975C3 2.35674 2.27154 3.02093 1.50024 2.9995C0.707517 3.02093 0.000489141 2.35674 0.000489141 1.49975C-0.0209418 0.664163 0.664679 0 1.50024 0Z" />
    <path fill="currentColor" d="M2.50003 12H0.5C0.225007 12 0 11.8154 0 11.5897V4.41025C0 4.18462 0.2 4 0.474993 4H2.5C2.77499 4 3 4.18462 3 4.41025V11.6103C3.00003 11.8154 2.77502 12 2.50003 12Z" />
    <path fill="currentColor" d="M11.979 6.63999C11.979 5.16 10.8242 4 9.27036 4H8.82942C7.98953 4 7.17063 4.37999 6.72968 5C6.58271 5.13999 6.5197 5.20001 6.5197 5.20001V4.40002C6.5197 4.32002 6.39371 4.20001 6.30972 4.20001H4.20998C4.12599 4.20001 4 4.28001 4 4.38001V11.84C4 11.92 4.12599 12 4.20998 12H6.51968C6.60367 12 6.72966 11.92 6.72966 11.84V7.51998C6.72966 6.77999 7.31758 6.15998 8.09448 6.13999C8.49342 6.13999 8.85037 6.27999 9.12334 6.53999C9.37531 6.77999 9.4803 7.11999 9.4803 7.49998V11.8C9.4803 11.88 9.60629 12 9.69028 12H11.79C11.874 12 12 11.88 12 11.8V6.63999H11.979Z"  />
</svg>