<svg width="20" height="22" viewBox="0 0 20 22" fill="none" xmlns="http://www.w3.org/2000/svg">
<path d="M16.6372 2.7015C14.8272 0.95941 12.4205 0 9.86077 0C7.30099 0 4.8944 0.959367 3.08423 2.7015C1.2742 4.44354 0.277344 6.75966 0.277344 9.22328C0.277344 11.6869 1.2742 14.0031 3.08423 15.7452L9.38725 21.8112C9.51802 21.9371 9.68942 22 9.86077 22C10.0322 22 10.2036 21.9371 10.3343 21.8112L16.6371 15.7452C18.4472 14.0031 19.444 11.6869 19.444 9.22332C19.444 6.75961 18.4472 4.4435 16.6372 2.7015ZM12.8704 12.1198C12.0665 12.8935 10.9977 13.3196 9.86081 13.3196C8.7239 13.3196 7.65508 12.8936 6.85123 12.1199C6.04729 11.3462 5.60458 10.3175 5.60458 9.22328C5.60458 8.12912 6.04729 7.10044 6.85123 6.3267C7.65508 5.553 8.7239 5.12692 9.86081 5.12692C10.9977 5.12692 12.0665 5.553 12.8704 6.3267C13.6743 7.10036 14.1171 8.12903 14.1171 9.22324C14.117 10.3174 13.6743 11.3462 12.8704 12.1198Z" fill="currentColor"/>
</svg>
