<svg width="12" height="12" viewBox="0 0 12 12" fill="none" xmlns="http://www.w3.org/2000/svg">
    <path fill="currentColor" d="M12 2.18385C11.5537 2.38462 11.0782 2.51769 10.5825 2.58231C11.0925 2.27 11.4818 1.77923 11.6648 1.18769C11.1893 1.47846 10.6642 1.68385 10.1047 1.79846C9.65325 1.30538 9.00975 1 8.30775 1C6.94575 1 5.84925 2.13385 5.84925 3.52385C5.84925 3.72385 5.86575 3.91615 5.90625 4.09923C3.861 3.99692 2.05125 2.99154 0.8355 1.46C0.62325 1.83769 0.49875 2.27 0.49875 2.73538C0.49875 3.60923 0.9375 4.38385 1.5915 4.83231C1.19625 4.82462 0.8085 4.70692 0.48 4.52154C0.48 4.52923 0.48 4.53923 0.48 4.54923C0.48 5.77538 1.33275 6.79385 2.451 7.02846C2.25075 7.08462 2.0325 7.11154 1.806 7.11154C1.6485 7.11154 1.4895 7.10231 1.34025 7.06846C1.659 8.06769 2.5635 8.80231 3.639 8.82615C2.802 9.49769 1.73925 9.90231 0.58875 9.90231C0.387 9.90231 0.1935 9.89308 0 9.86769C1.08975 10.5885 2.38125 11 3.774 11C8.301 11 10.776 7.15385 10.776 3.82C10.776 3.70846 10.7722 3.60077 10.767 3.49385C11.2552 3.13846 11.6655 2.69462 12 2.18385Z" />
</svg>