<svg width="12" height="12" viewBox="0 0 12 12" fill="none" xmlns="http://www.w3.org/2000/svg">
    <path fill="currentColor" d="M12 6.33299C12 6.29998 12 6.26246 11.9987 6.21895C11.9973 6.09741 11.9946 5.96087 11.992 5.81533C11.9813 5.3967 11.9625 4.97957 11.933 4.58645C11.8929 4.04478 11.8339 3.59314 11.7536 3.25404C11.6688 2.90015 11.5026 2.5774 11.2715 2.31805C11.0405 2.05869 10.7528 1.87181 10.4371 1.77608C10.058 1.66205 9.31607 1.59153 8.27143 1.54801C7.77455 1.52701 7.24286 1.5135 6.71116 1.506C6.525 1.503 6.35223 1.5015 6.19688 1.5H5.80312C5.64777 1.5015 5.475 1.503 5.28884 1.506C4.75714 1.5135 4.22545 1.52701 3.72857 1.54801C2.68393 1.59303 1.94062 1.66355 1.56295 1.77608C1.24714 1.87157 0.959289 2.05837 0.728229 2.31777C0.497168 2.57716 0.331018 2.90004 0.246429 3.25404C0.164732 3.59314 0.107143 4.04478 0.0669643 4.58645C0.0375 4.97957 0.01875 5.3967 0.00803569 5.81533C0.00401784 5.96087 0.00267855 6.09741 0.00133927 6.21895C0.00133927 6.26246 0 6.29998 0 6.33299V6.41701C0 6.45002 -2.04558e-08 6.48753 0.00133927 6.53105C0.00267855 6.65259 0.00535712 6.78913 0.00803569 6.93467C0.01875 7.3533 0.0375 7.77043 0.0669643 8.16355C0.107143 8.70522 0.166071 9.15686 0.246429 9.49596C0.417857 10.2147 0.921429 10.7819 1.56295 10.9739C1.94062 11.0879 2.68393 11.1585 3.72857 11.202C4.22545 11.223 4.75714 11.2365 5.28884 11.244C5.475 11.247 5.64777 11.2485 5.80312 11.25H6.19688C6.35223 11.2485 6.525 11.247 6.71116 11.244C7.24286 11.2365 7.77455 11.223 8.27143 11.202C9.31607 11.157 10.0594 11.0864 10.4371 10.9739C11.0786 10.7819 11.5821 10.2162 11.7536 9.49596C11.8353 9.15686 11.8929 8.70522 11.933 8.16355C11.9625 7.77043 11.9813 7.3533 11.992 6.93467C11.996 6.78913 11.9973 6.65259 11.9987 6.53105C11.9987 6.48753 12 6.45002 12 6.41701V6.33299V6.33299ZM11.0357 6.41101C11.0357 6.44252 11.0357 6.47703 11.0344 6.51754C11.033 6.63458 11.0304 6.76362 11.0277 6.90316C11.0183 7.30228 10.9996 7.70141 10.9714 8.07202C10.9353 8.55517 10.8844 8.95129 10.8214 9.21687C10.7384 9.56348 10.4946 9.83807 10.1866 9.92959C9.90536 10.0136 9.19687 10.0811 8.23393 10.1217C7.74643 10.1427 7.22143 10.1562 6.69777 10.1637C6.51429 10.1667 6.3442 10.1682 6.19152 10.1682H5.80848L5.30223 10.1637C4.77857 10.1562 4.25491 10.1427 3.76607 10.1217C2.80313 10.0796 2.0933 10.0136 1.81339 9.92959C1.50536 9.83656 1.26161 9.56348 1.17857 9.21687C1.11563 8.95129 1.06473 8.55517 1.02857 8.07202C1.00045 7.70141 0.983036 7.30228 0.972322 6.90316C0.968304 6.76362 0.966964 6.63308 0.965625 6.51754C0.965625 6.47703 0.964286 6.44102 0.964286 6.41101V6.33899C0.964286 6.30748 0.964286 6.27297 0.965625 6.23246C0.966964 6.11542 0.969643 5.98638 0.972322 5.84684C0.981697 5.44771 1.00045 5.04859 1.02857 4.67798C1.06473 4.19483 1.11563 3.79871 1.17857 3.53313C1.26161 3.18652 1.50536 2.91193 1.81339 2.82041C2.09464 2.73638 2.80313 2.66886 3.76607 2.62835C4.25357 2.60734 4.77857 2.59384 5.30223 2.58633C5.48571 2.58333 5.6558 2.58183 5.80848 2.58183H6.19152L6.69777 2.58633C7.22143 2.59384 7.74509 2.60734 8.23393 2.62835C9.19687 2.67036 9.9067 2.73638 10.1866 2.82041C10.4946 2.91343 10.7384 3.18652 10.8214 3.53313C10.8844 3.79871 10.9353 4.19483 10.9714 4.67798C10.9996 5.04859 11.017 5.44771 11.0277 5.84684C11.0317 5.98638 11.033 6.11692 11.0344 6.23246C11.0344 6.27297 11.0357 6.30898 11.0357 6.33899V6.41101ZM4.80804 8.38562L7.91518 6.35999L4.80804 4.36438V8.38562Z"/>
</svg>